<svg width="35" height="37" viewBox="0 0 35 37" fill="none" xmlns="http://www.w3.org/2000/svg">
<rect y="2" width="35" height="35" rx="10" fill="#E7EDF0"/>
<g clip-path="url(#clip0_0_174)">
<path d="M15.1667 12.5833C15.1667 12.0971 15.3598 11.6308 15.7036 11.287C16.0474 10.9432 16.5138 10.75 17 10.75C17.4862 10.75 17.9525 10.9432 18.2964 11.287C18.6402 11.6308 18.8333 12.0971 18.8333 12.5833C19.886 13.0811 20.7834 13.856 21.4294 14.8249C22.0753 15.7937 22.4454 16.9201 22.5 18.0833V20.8333C22.569 21.4032 22.7708 21.949 23.0892 22.4266C23.4077 22.9043 23.8338 23.3005 24.3333 23.5833H9.66666C10.1662 23.3005 10.5923 22.9043 10.9107 22.4266C11.2292 21.949 11.431 21.4032 11.5 20.8333V18.0833C11.5546 16.9201 11.9247 15.7937 12.5706 14.8249C13.2165 13.856 14.1139 13.0811 15.1667 12.5833Z" fill="#9DACB4"/>
<path d="M14.25 23.5833V24.5C14.25 25.2294 14.5397 25.9288 15.0555 26.4446C15.5712 26.9603 16.2707 27.25 17 27.25C17.7293 27.25 18.4288 26.9603 18.9445 26.4446C19.4603 25.9288 19.75 25.2294 19.75 24.5V23.5833" fill="#9DACB4"/>
</g>
<circle cx="29.5" cy="5.5" r="5.5" fill="#FB7B7B"/>
<defs>
<clipPath id="clip0_0_174">
<rect width="22" height="22" fill="white" transform="translate(6 8)"/>
</clipPath>
</defs>
</svg>
